<?xml version="1.0" standalone="no"?><!DOCTYPE svg PUBLIC "-//W3C//DTD SVG 1.1//EN" "http://www.w3.org/Graphics/SVG/1.1/DTD/svg11.dtd"><svg t="1764248456260" class="icon" viewBox="0 0 1024 1024" version="1.1" xmlns="http://www.w3.org/2000/svg" p-id="1648" width="200" height="200" xmlns:xlink="http://www.w3.org/1999/xlink"><path d="M512 610.133333l89.6-217.6c38.4-85.333333 8.533333-183.466667-76.8-217.6s-162.133333 17.066667-196.266667 102.4l-89.6 217.6c-59.733333 140.8-34.133333 285.866667 106.666667 345.6s264.533333-21.333333 324.266667-162.133333l157.866666-371.2 76.8 34.133333-157.866666 371.2c-76.8 183.466667-251.733333 285.866667-435.2 209.066667s-230.4-273.066667-153.6-460.8l89.6-217.6C302.933333 115.2 426.666667 42.666667 554.666667 98.133333S733.866667 298.666667 678.4 426.666667l-89.6 217.6C554.666667 721.066667 469.333333 755.2 392.533333 725.333333c-76.8-34.133333-110.933333-119.466667-81.066666-196.266666l89.6-217.6 76.8 34.133333-89.6 217.6c-12.8 34.133333 0 68.266667 34.133333 85.333333 34.133333 8.533333 72.533333-4.266667 89.6-38.4z" p-id="1649" data-spm-anchor-id="a313x.search_index.0.i2.882d3a81aVTw6n" class="selected" fill="#2c2c2c"></path></svg>